# xmcd
#
# Track frame offsets: 
#        150
#        31912
#        49955
#        77315
#        105184
#        132915
#        160311
#        200545
#        235998
#
# Disc length: 3360 seconds
#
# Revision: 1
# Processed by: cddbd v1.5.2PL0 Copyright (c) Steve Scherf et al.
# Submitted via: ExactAudioCopyFreeDBPlugin 1.0
#
DISCID=680d1e09
DTITLE=Double Exposure - Locker Room
DYEAR=1979
DGENRE=Funk
TTITLE0=I Got The Hots (For Ya)
TTITLE1=(Where Have You Been) All My Life
TTITLE2=Can We Be In Love
TTITLE3=Ice Cold Love
TTITLE4=I Wish That I Could Make Love To You
TTITLE5=Why Do We Have To Go Our Separate Ways
TTITLE6=I Got The Hots For Ya (Original Bobby "DJ" Guttadaro 12" Mix)
TTITLE7=I Got The Hots For Ya (Original Bobby "DJ" Guttadaro and Ken Kay
TTITLE7=re 12" Mix)
TTITLE8=I Got The Hots For Ya (Original Single Version)
EXTD=
EXTT0=
EXTT1=
EXTT2=
EXTT3=
EXTT4=
EXTT5=
EXTT6=
EXTT7=
EXTT8=
PLAYORDER=
